<svg width="19" height="19" viewBox="0 0 24 24" fill="none" xmlns="http://www.w3.org/2000/svg">
  <path d="M12 2C6.48 2 2 6.48 2 12C2 17.52 6.48 22 12 22C17.52 22 22 17.52 22 12C22 6.48 17.52 2 12 2Z" fill="#8B4513"/>
  <path d="M8 10C8 8.9 8.9 8 10 8C11.1 8 12 8.9 12 10C12 11.1 11.1 12 10 12C8.9 12 8 11.1 8 10Z" fill="#FFD700"/>
  <path d="M14 10C14 8.9 14.9 8 16 8C17.1 8 18 8.9 18 10C18 11.1 17.1 12 16 12C14.9 12 14 11.1 14 10Z" fill="#FFD700"/>
  <path d="M12 16C10 16 8.5 14.5 8.5 12.5H15.5C15.5 14.5 14 16 12 16Z" fill="#FFD700"/>
</svg>
